<svg width="487" height="150" xmlns="http://www.w3.org/2000/svg">
  <path fill="#da38b4" d="m128.557 112.5-16.068-9.383V84.372L128.557 75zm0-37.5-16.068-9.372V46.872l16.068-9.372zm-32.136 56.245-16.069-9.373v-18.755l16.069-9.372 16.068 9.372v18.755zm0-37.5-16.069-9.373V65.628l16.069-9.383 16.068 9.383v18.744zm0-37.5-16.069-9.373V28.128l16.069-9.372 16.068 9.372v18.744zM64.284 75l-16.08-9.372V46.872l16.08-9.372 16.068 9.372v18.756zm0-75L48.216 9.372v18.756L64.284 37.5l16.068-9.372V9.372z"/>
  <path fill="#061f5c" d="M480.64 95.46V76.397c0-6.652-.48-8.706-2.556-10.967-1.911-2.086-5.636-3.539-9.055-3.539-4.676 0-7.963 1.42-10.836 4.719v-3.845h-14.55v2.545h5.877v30.149h-5.877v2.545h19.815v-2.545h-5.265V85.431c0-10.476.502-14.397 2.13-16.79 1.3-1.867 3.888-3.331 5.898-3.331 1.704 0 3.08.623 4.075 1.868 1.332 1.671 1.66 4.653 1.66 15.183v13.098h-5.341v2.545h19.815v-2.545zm-50.728-3.103c-1.147 2.469-3.528 3.714-7.09 3.714-3.21 0-5.188-.808-6.608-2.72-1.322-1.824-1.41-2.676-1.41-13.01 0-9.11.088-10.344.842-11.928 1.169-2.501 3.517-3.714 7.177-3.714 3.113 0 5.123.841 6.521 2.72 1.31 1.824 1.41 2.665 1.41 12.923 0 9.197-.088 10.431-.842 12.015m-7.09-30.465c-10.027 0-18.187 8.269-18.187 18.45 0 10.224 8.16 18.547 18.188 18.547 9.984 0 18.11-8.323 18.11-18.547 0-10.181-8.126-18.45-18.11-18.45m-25.55.874h-14.561v2.545h5.877V95.46h-5.877v2.545h20.35V95.46h-5.79zm-4.522-12.092c2.829 0 5.308-2.48 5.308-5.31 0-3.025-2.403-5.395-5.472-5.395-3.026 0-5.222 2.272-5.222 5.396 0 2.971 2.37 5.309 5.386 5.309m-13.087 40.285c-.568 3.015-1.9 4.413-4.172 4.413-2.578 0-3.813-.83-3.813-5.56V65.311h8.772v-2.545h-8.772V49.352h-2.064l-.098.251c-2.6 6.74-5.975 10.716-11.656 13.73l-.207.11v1.868h5.342v21.781c0 5.385.142 6.5 1.846 8.488 1.715 2.162 4.39 3.31 7.755 3.31 5.462 0 8.783-2.699 9.602-7.789l.076-.459h-2.545zm-35.61-10.464v1.332c0 4.38-.35 6.926-1.18 8.499-1.321 2.49-3.495 3.91-5.964 3.91-3.146 0-4.948-1.933-4.948-5.309 0-5.418 3.736-8.028 12.092-8.432m12.507 13.741c-1.573 1.311-1.66 1.311-2.283 1.311-1.452 0-1.54 0-1.54-7.668V76.136c0-7.646-.044-8.28-2.119-10.443-2.163-2.348-6.248-3.812-10.64-3.812-7.536 0-14.156 4.326-14.156 9.252 0 2.338 1.791 4.173 4.074 4.173 2.404 0 4.086-1.715 4.086-4.173 0-1.158-.492-1.966-1.322-2.96-.328-.426-.35-.503-.35-.721 0-1.355 3.201-3.288 6.183-3.288 1.9 0 3.561.58 4.446 1.54.918 1.005 1.114 1.704 1.114 6.838v5.659c-13.348.338-20.689 4.576-20.689 11.96 0 5.222 3.9 8.728 9.69 8.728 4.532 0 8.552-2.217 11.174-6.128.82 3.955 3.452 6.128 7.504 6.128 2.49 0 4.228-.742 6.401-2.741l.273-.252-1.54-1.911zm-37.816-7.887c-2.12 6.369-6.02 9.722-11.284 9.722-2.458 0-4.533-.852-5.833-2.392-1.41-1.737-1.836-4.25-1.836-10.705 0-15.74 2.415-18.275 8.193-18.275 2.807 0 5.658 1.344 5.658 2.316 0 .1 0 .1-.273.371-1.146 1.431-1.835 3.004-1.835 4.184 0 2.764 1.78 4.697 4.337 4.697 2.742 0 4.522-1.977 4.522-5.046 0-4.883-5.92-9.34-12.409-9.34-10.082 0-18.286 8.4-18.286 18.723 0 9.732 8.018 18.275 17.14 18.275 7.012 0 11.73-3.89 14.844-12.268l.197-.524h-3.048zm-35.884-23.583h-14.55v2.545h5.866v11.874c0 9.34-.36 12.103-1.955 14.79-1.518 2.534-4.38 4.107-7.46 4.107-1.716 0-3.212-.491-3.933-1.289-1.103-1.114-1.29-2.676-1.29-11.207v-20.82h-14.55v2.545h5.867v18.275c0 7.471.535 9.722 2.85 12.037 2.185 2.098 5.594 3.266 9.559 3.266 4.708 0 8.454-1.67 10.912-4.839v3.955h14.474V95.46h-5.79zM221.45 96.082c-1.879 0-3.66-1.136-4.642-2.95-.918-1.758-1.093-3.593-1.093-11.567 0-8.892.306-12.343 1.256-14.179.994-1.638 2.71-2.698 4.392-2.698 5.21 0 8.979 6.62 8.979 15.74 0 8.925-3.824 15.654-8.892 15.654m17.75-57.337h-14.55v2.545h5.877v26.708c-2.818-4.27-5.898-6.117-10.126-6.117-8.061 0-14.866 8.411-14.866 18.373 0 10.28 6.87 18.635 15.303 18.635 4.097 0 7.548-2.228 9.69-6.171v5.287h14.462V95.46h-5.79zm-38.909 40.526c-2.184 7.439-2.774 9.132-4.675 11.896-2.545 3.736-4.009 4.293-11.164 4.293h-10.737V69.254h2.414c7.744 0 8.913 1.355 9.601 11.208l.023.36h1.9V55.928h-1.911l-.01.382c-.175 7.308-1.311 9.394-5.55 10.137-1.016.174-1.955.262-6.466.339V41.29h6.357c4.37 0 5.407 0 6.51.164 3.288.524 5.604 1.78 7.297 3.976 1.792 2.305 2.818 4.883 3.954 9.842l.066.306h1.868l-.634-16.833h-42.863v2.545h7.275v54.17h-7.275v2.544h44.24l1.736-19.028h-1.867zm131.977-56.955h2.512V9.372h3.496v-2.02h-3.496V6.86c0-1.18.23-1.988.688-2.403.46-.415 1.18-.634 2.152-.634.437 0 .896.066 1.388.186l.13.033V1.977l-.086-.01a12.23 12.23 0 0 0-2.12-.208c-1.278 0-2.37.35-3.255 1.048-.884.689-1.354 2.218-1.409 4.545h-2.512v2.02h2.512zm-9.831-1.714c-1.125 0-2.076-.448-2.84-1.344-.765-.896-1.147-2.403-1.147-4.5 0-1.978.382-3.441 1.147-4.337.764-.907 1.715-1.355 2.807-1.355 1.07 0 2.02.448 2.818 1.333.809.896 1.213 2.37 1.213 4.37 0 1.998-.383 3.495-1.158 4.423-.754.94-1.715 1.41-2.84 1.41m4.806-.1c1.278-1.474 1.933-3.397 1.933-5.712 0-2.218-.6-4.108-1.791-5.593-1.19-1.497-2.83-2.261-4.894-2.261-1.922 0-3.55.72-4.839 2.14-1.289 1.42-1.944 3.343-1.944 5.703 0 2.239.579 4.14 1.726 5.647 1.147 1.518 2.774 2.294 4.828 2.294 2.032 0 3.703-.743 4.981-2.217m-25.834-2.36c0 3.037 1.475 4.578 4.38 4.578.601 0 1.311-.054 2.12-.164l.098-.02v-2.044l-.132.021a10.76 10.76 0 0 1-1.758.164c-1.518 0-2.261-.71-2.261-2.174V9.361h3.299v-2.02h-3.3V3.419l-2.348.218-.098 3.704h-2.61v2.02h2.61zm-7.45-8.203c.568.524.863 1.464.863 2.786v9.58h2.37v-8.63c0-1.857-.152-3.168-.447-3.889-.295-.731-.841-1.387-1.628-1.977-.786-.579-1.758-.874-2.873-.874-1.824 0-3.353.962-4.544 2.84V7.351h-2.348v14.955h2.512v-8.193c0-1.496.393-2.709 1.158-3.616.776-.906 1.726-1.365 2.862-1.365.808 0 1.507.273 2.075.808m-21.978 3.277c.11-1.289.536-2.337 1.29-3.113a3.804 3.804 0 0 1 2.818-1.19c.819 0 1.529.218 2.108.655.579.437 1.005.972 1.245 1.595.24.6.372 1.289.393 2.053zm3.977 9.504c1.54 0 2.905-.426 4.052-1.257 1.136-.84 1.923-1.911 2.316-3.19l.033-.108-2.338-.492-.044.1c-.753 1.9-2.02 2.829-3.856 2.829-1.016 0-1.988-.383-2.894-1.147-.885-.732-1.344-2.185-1.366-4.304h10.716v-.12c-.033-2.665-.644-4.708-1.835-6.051-1.19-1.355-2.775-2.043-4.73-2.043-1.977 0-3.648.743-4.96 2.206-1.299 1.464-1.965 3.409-1.965 5.768 0 2.316.633 4.217 1.9 5.648 1.257 1.43 2.928 2.162 4.97 2.162m-27.177-9.34c0-1.246.35-2.295 1.049-3.103.699-.808 1.518-1.213 2.458-1.213.644 0 1.278.263 1.867.776.59.503.896 1.398.896 2.654v9.82h2.436v-8.421c0-1.606.404-2.808 1.19-3.594.776-.776 1.607-1.17 2.448-1.17.6 0 1.157.198 1.638.57.48.381.798.796.918 1.244.13.46.196 1.17.196 2.087v9.284h2.458v-9.284c0-1.355-.12-2.425-.35-3.179-.24-.754-.742-1.442-1.518-2.032-.765-.579-1.682-.885-2.698-.885-2.043 0-3.594 1.115-4.62 3.31a4.881 4.881 0 0 0-1.388-2.24c-.765-.71-1.693-1.07-2.774-1.07-1.846 0-3.332.983-4.424 2.906v-2.49h-2.196v14.964h2.414zm-10.858 4.762c0 3.036 1.475 4.577 4.392 4.577.59 0 1.31-.054 2.119-.164l.087-.02v-2.044l-.12.021c-.656.11-1.246.164-1.77.164-1.508 0-2.25-.71-2.25-2.174V9.361h3.299v-2.02h-3.3V3.419l-2.348.218-.11 3.704h-2.61v2.02h2.61zm-8.181-3.736c.055-1.497.502-2.73 1.31-3.648.809-.918 1.847-1.377 3.07-1.377h.579V6.98l-.098-.02a10.853 10.853 0 0 0-.918-.055c-.764 0-1.529.251-2.26.743-.656.437-1.312 1.354-1.956 2.73V7.342h-2.24v14.965h2.513zm-13.458 6.325c-.983 0-1.748-.252-2.261-.732a2.345 2.345 0 0 1-.776-1.759c0-1.114.47-1.933 1.453-2.512.972-.58 2.37-.874 4.162-.874.47 0 1.147.034 2.02.076.023.327.034.611.034.863 0 1.321-.437 2.49-1.3 3.462-.863.983-1.988 1.475-3.332 1.475m-3.768-6.358c-1.29.973-1.945 2.24-1.945 3.758 0 1.256.46 2.349 1.366 3.234.896.895 2.206 1.354 3.889 1.354 2.326 0 4.03-.928 5.079-2.775.076 1.104.153 1.847.23 2.272l.022.1h2.502l-.044-.143c-.197-.852-.295-1.803-.295-2.84v-6.26c0-2.228-.448-3.834-1.31-4.751-.875-.918-2.35-1.387-4.414-1.387-3.856 0-6.084 1.409-6.609 4.161l-.022.12 2.327.404.023-.109c.371-1.726 1.66-2.567 3.954-2.567.929 0 1.682.153 2.25.448.558.306.918.699 1.093 1.19.164.492.262 1.29.262 2.382a34.4 34.4 0 0 0-1.846-.054c-3.037 0-5.232.491-6.51 1.464m-9.866-5.21c1.114 0 2.02.491 2.698 1.463.677.983 1.027 2.404 1.027 4.228 0 2.119-.383 3.616-1.136 4.467-.743.853-1.606 1.279-2.578 1.279-.83 0-1.639-.36-2.414-1.06-.776-.71-1.246-1.617-1.388-2.687v-4.14c.23-.983.71-1.824 1.41-2.524.699-.677 1.496-1.026 2.38-1.026m4.785 11.393c1.114-1.42 1.671-3.375 1.671-5.79 0-2.25-.535-4.129-1.616-5.603-1.093-1.475-2.534-2.229-4.304-2.229-1.955 0-3.485.983-4.544 2.917V7.351h-2.294v19.936h2.512V20.35c1.07 1.573 2.49 2.37 4.26 2.37 1.748 0 3.201-.731 4.315-2.162m-24.457-7.34c.12-1.29.546-2.338 1.3-3.114a3.798 3.798 0 0 1 2.807-1.19c.82 0 1.53.218 2.108.655.59.437 1.005.972 1.256 1.595.23.6.36 1.289.394 2.053zm3.987 9.503c1.54 0 2.905-.426 4.041-1.257 1.147-.84 1.934-1.911 2.327-3.19l.033-.108-2.349-.492-.032.1c-.754 1.9-2.021 2.829-3.867 2.829-1.005 0-1.977-.383-2.884-1.147-.896-.732-1.344-2.185-1.366-4.304h10.716v-.12c-.032-2.665-.644-4.708-1.835-6.051-1.19-1.355-2.774-2.043-4.73-2.043-1.977 0-3.648.743-4.959 2.206-1.31 1.464-1.966 3.409-1.966 5.768 0 2.316.633 4.217 1.89 5.648 1.267 1.43 2.938 2.162 4.98 2.162m-17.75-18.243c2.196 0 3.823.775 4.861 2.304 1.038 1.54 1.562 3.3 1.562 5.233 0 2.381-.557 4.336-1.638 5.778-1.082 1.442-2.698 2.174-4.785 2.174h-3.932V4.478zm6.86 14.9c1.53-1.945 2.305-4.37 2.305-7.189 0-2.785-.797-5.177-2.37-7.11-1.584-1.923-3.813-2.906-6.653-2.906h-6.794v20.142h7.613c2.37 0 4.348-.994 5.9-2.938M0 112.5l16.068-9.372V84.372L0 75zM0 75l16.068-9.372V46.872L0 37.5zm32.137 56.245-16.069-9.373v-18.755l16.069-9.372 16.068 9.372v18.755zm0-37.5-16.069-9.373V65.628l16.069-9.383 16.068 9.383v18.744zm0-37.5-16.069-9.373V28.128l16.069-9.372 16.068 9.372v18.744zm16.079 65.627v18.745L64.273 150l16.08-9.383v-18.745l-16.08-9.372zm16.068-9.372-16.08-9.383V84.372L64.284 75l16.068 9.372v18.745z"/>
</svg>
